<svg xmlns="http://www.w3.org/2000/svg" xmlns:xlink="http://www.w3.org/1999/xlink" preserveAspectRatio="xMidYMid" width="16" height="16" viewBox="0 0 16 16">
  <defs>
    <style>
      .cls-1 {
        fill: #b7bbc2;
        fill-rule: evenodd;
      }
    </style>
  </defs>
  <path d="M13.000,15.992 L3.000,15.992 C1.343,15.992 0.000,14.650 0.000,12.993 L0.000,2.998 C0.000,1.342 1.343,-0.001 3.000,-0.001 L13.000,-0.001 C14.657,-0.001 16.000,1.342 16.000,2.998 L16.000,12.993 C16.000,14.650 14.657,15.992 13.000,15.992 ZM14.000,2.998 C14.000,2.446 13.553,1.998 13.000,1.998 L3.000,1.998 C2.448,1.998 2.000,2.446 2.000,2.998 L2.000,12.993 C2.000,13.546 2.448,13.993 3.000,13.993 L13.000,13.993 C13.553,13.993 14.000,13.546 14.000,12.993 L14.000,2.998 ZM7.631,10.820 C7.240,11.211 6.607,11.211 6.217,10.820 L4.095,8.700 C3.705,8.310 3.705,7.677 4.095,7.287 C4.486,6.896 5.119,6.896 5.510,7.287 L6.924,8.700 L10.459,5.167 C10.850,4.776 11.482,4.776 11.873,5.167 C12.264,5.557 12.264,6.190 11.873,6.580 L7.631,10.820 Z" class="cls-1"/>
</svg>
